<svg id="图层_1" data-name="图层 1" xmlns="http://www.w3.org/2000/svg" xmlns:xlink="http://www.w3.org/1999/xlink" viewBox="0 0 104 104"><defs><style>.cls-1{fill:url(#未命名的渐变);}.cls-2{fill:#212833;}.cls-3{fill:none;}</style><linearGradient id="未命名的渐变" x1="21.58" y1="74.13" x2="48.77" y2="46.93" gradientTransform="matrix(1, 0, 0, -1, 0, 106)" gradientUnits="userSpaceOnUse"><stop offset="0.01" stop-color="#fbda3c"/><stop offset="0.14" stop-color="#f8d230"/><stop offset="0.43" stop-color="#f4c41c"/><stop offset="0.72" stop-color="#f1bc0f"/><stop offset="1" stop-color="#f0b90b"/></linearGradient></defs><title>新设备 邮箱确认</title><g id="Icons_light_" data-name="Icons light "><path class="cls-1" d="M48.71,32.58H20.86v25H50.27V39.85A17.66,17.66,0,0,0,48.71,32.58ZM30,41.73H23.36V35.08H30Z"/><rect class="cls-2" x="44.85" y="52.08" width="2.5" height="2.5"/><rect class="cls-2" x="39.43" y="52.08" width="2.5" height="2.5"/><rect class="cls-2" x="34.01" y="52.08" width="2.5" height="2.5"/><rect class="cls-2" x="44.85" y="46.56" width="2.5" height="2.5"/><rect class="cls-2" x="39.43" y="46.56" width="2.5" height="2.5"/><rect class="cls-2" x="34.01" y="46.56" width="2.5" height="2.5"/><rect class="cls-2" x="57.74" y="63.03" width="2.5" height="2.5"/><rect class="cls-2" x="57.74" y="68.45" width="2.5" height="2.5"/><rect class="cls-2" x="57.74" y="63.03" width="2.5" height="2.5"/><rect class="cls-2" x="57.74" y="73.87" width="2.5" height="2.5"/><path class="cls-2" d="M91.76,60.12V39.85A20.16,20.16,0,0,0,72.08,19.6H70.37v2.5H72A17.67,17.67,0,0,1,89.26,39.85V57.62H52.77V39.85A20.29,20.29,0,0,0,42.25,22.09H64.87V46.56H61.49v2.5h9.26v-2.5H67.37V15.34H78V6.5H64.87V19.59H32.5A20.28,20.28,0,0,0,12.24,39.85V54.62h2.5V39.85a17.77,17.77,0,0,1,35.53,0V57.62h-38v1.25a20.26,20.26,0,0,0,38,9.74V95.09H32.5v2.5H78v-2.5H60.24V79.3h-2.5V95.09h-5v-35ZM67.37,9h8.14v3.84H67.37ZM32.5,76.63A17.79,17.79,0,0,1,14.78,60.12H50.22A17.78,17.78,0,0,1,32.5,76.63Z"/><rect class="cls-3" width="104" height="104"/></g></svg>