<svg width="180" height="46" viewBox="0 0 180 46" fill="none" xmlns="http://www.w3.org/2000/svg">
<rect width="180" height="46" rx="4" fill="#474D57"/>
<path fill-rule="evenodd" clip-rule="evenodd" d="M55.1216 13C55.2613 14.2102 54.7575 15.4015 54.0197 16.2785C53.2506 17.141 52.0185 17.8003 50.8197 17.7154C50.6628 16.5521 51.2703 15.3139 51.9501 14.5589C52.7192 13.7009 54.054 13.0443 55.1216 13ZM58.955 19.5C58.8134 19.5806 56.6048 20.8383 56.6292 23.3969C56.6568 26.4948 59.4813 27.5181 59.5146 27.5289C59.4984 27.6011 59.0725 29.0065 58.0144 30.4335C57.1303 31.6897 56.2024 32.918 54.7317 32.9397C54.0317 32.9552 53.5592 32.764 53.0667 32.5647C52.5532 32.3569 52.018 32.1404 51.1808 32.1404C50.2932 32.1404 49.7342 32.364 49.1953 32.5797C48.7292 32.7661 48.2781 32.9466 47.6423 32.9713C46.241 33.021 45.1696 31.6301 44.2531 30.3856C42.4221 27.8441 40.996 23.2217 42.9079 20.0769C43.8348 18.5343 45.5242 17.5418 47.3296 17.5147C48.1247 17.4993 48.8874 17.7905 49.5561 18.0457C50.0675 18.2409 50.5238 18.4151 50.8975 18.4151C51.2261 18.4151 51.6699 18.2478 52.187 18.0529C53.0014 17.7459 53.9978 17.3702 55.0131 17.4713C55.7071 17.4903 57.6845 17.7314 58.9584 19.498L58.955 19.5Z" fill="white"/>
<path d="M72.77 18H73.526V11.718H72.77V14.49H69.593V11.718H68.837V18H69.593V15.156H72.77V18ZM76.8743 18.108C77.7473 18.108 78.4133 17.676 78.7103 17.046L78.1973 16.677C77.9543 17.19 77.5043 17.478 76.9193 17.478C76.0553 17.478 75.5423 16.875 75.5423 16.074V15.858H78.8813V15.516C78.8813 14.202 78.1163 13.248 76.8743 13.248C75.6143 13.248 74.7863 14.202 74.7863 15.678C74.7863 17.154 75.6143 18.108 76.8743 18.108ZM76.8743 13.851C77.6123 13.851 78.1073 14.4 78.1073 15.219V15.318H75.5423V15.255C75.5423 14.445 76.0913 13.851 76.8743 13.851ZM80.7877 18V14.778C80.7877 14.184 81.3277 13.896 81.8947 13.896C82.5787 13.896 82.8937 14.319 82.8937 15.147V18H83.6137V14.778C83.6137 14.184 84.1357 13.896 84.7027 13.896C85.4047 13.896 85.7197 14.328 85.7197 15.147V18H86.4397V15.021C86.4397 13.896 85.8727 13.248 84.9277 13.248C84.1357 13.248 83.6857 13.689 83.5147 14.193H83.4967C83.2447 13.527 82.6867 13.248 82.0747 13.248C81.3547 13.248 81.0307 13.635 80.8237 14.112H80.7877V13.356H80.0677V18H80.7877ZM89.6712 18.108C90.5442 18.108 91.2102 17.676 91.5072 17.046L90.9942 16.677C90.7512 17.19 90.3012 17.478 89.7162 17.478C88.8522 17.478 88.3392 16.875 88.3392 16.074V15.858H91.6782V15.516C91.6782 14.202 90.9132 13.248 89.6712 13.248C88.4112 13.248 87.5832 14.202 87.5832 15.678C87.5832 17.154 88.4112 18.108 89.6712 18.108ZM89.6712 13.851C90.4092 13.851 90.9042 14.4 90.9042 15.219V15.318H88.3392V15.255C88.3392 14.445 88.8882 13.851 89.6712 13.851ZM93.5846 18V14.778C93.5846 14.184 94.1426 13.896 94.7186 13.896C95.4116 13.896 95.7716 14.319 95.7716 15.147V18H96.4916V15.021C96.4916 13.896 95.8886 13.248 94.9346 13.248C94.2416 13.248 93.8456 13.59 93.6206 14.112H93.5846V13.356H92.8646V18H93.5846ZM101.142 10.98C101.484 10.98 101.646 10.791 101.646 10.503V10.377C101.646 10.089 101.484 9.9 101.142 9.9C100.8 9.9 100.638 10.089 100.638 10.377V10.503C100.638 10.791 100.8 10.98 101.142 10.98ZM102.402 18V17.37H101.52V12.348H102.402V11.718H99.8818V12.348H100.764V17.37H99.8818V18H102.402ZM104.43 18V14.778C104.43 14.184 104.988 13.896 105.564 13.896C106.257 13.896 106.617 14.319 106.617 15.147V18H107.337V15.021C107.337 13.896 106.734 13.248 105.78 13.248C105.087 13.248 104.691 13.59 104.466 14.112H104.43V13.356H103.71V18H104.43ZM111.796 18H112.516V11.34H111.796V14.112H111.76C111.517 13.527 111.04 13.248 110.401 13.248C109.24 13.248 108.511 14.193 108.511 15.678C108.511 17.163 109.24 18.108 110.401 18.108C111.04 18.108 111.481 17.82 111.76 17.244H111.796V18ZM110.599 17.46C109.789 17.46 109.285 16.902 109.285 16.074V15.282C109.285 14.454 109.789 13.896 110.599 13.896C111.256 13.896 111.796 14.274 111.796 14.787V16.515C111.796 17.118 111.256 17.46 110.599 17.46ZM114.406 12.267C114.712 12.267 114.847 12.105 114.847 11.862V11.745C114.847 11.502 114.712 11.34 114.406 11.34C114.1 11.34 113.965 11.502 113.965 11.745V11.862C113.965 12.105 114.1 12.267 114.406 12.267ZM114.046 18H114.766V13.356H114.046V18ZM117.016 18V14.85C117.016 14.409 117.484 14.076 118.258 14.076H118.681V13.356H118.402C117.646 13.356 117.223 13.77 117.061 14.211H117.016V13.356H116.296V18H117.016Z" fill="white"/>
<path d="M74.264 34H75.68L72.824 25.624H71.12L68.264 34H69.644L70.376 31.732H73.508L74.264 34ZM71.972 26.872L73.172 30.568H70.7L71.912 26.872H71.972ZM77.2013 27.76V36.4H78.5093V32.968H78.5693C78.8333 33.7 79.4933 34.144 80.3213 34.144C81.8933 34.144 82.8053 32.932 82.8053 30.88C82.8053 28.828 81.8933 27.616 80.3213 27.616C79.4933 27.616 78.8333 28.048 78.5693 28.792H78.5093V27.76H77.2013ZM79.9253 33.016C79.1333 33.016 78.5093 32.584 78.5093 31.948V29.812C78.5093 29.176 79.1333 28.744 79.9253 28.744C80.8253 28.744 81.4253 29.38 81.4253 30.34V31.42C81.4253 32.38 80.8253 33.016 79.9253 33.016ZM84.6229 27.76V36.4H85.9309V32.968H85.9909C86.2549 33.7 86.9149 34.144 87.7429 34.144C89.3149 34.144 90.2269 32.932 90.2269 30.88C90.2269 28.828 89.3149 27.616 87.7429 27.616C86.9149 27.616 86.2549 28.048 85.9909 28.792H85.9309V27.76H84.6229ZM87.3469 33.016C86.5549 33.016 85.9309 32.584 85.9309 31.948V29.812C85.9309 29.176 86.5549 28.744 87.3469 28.744C88.2469 28.744 88.8469 29.38 88.8469 30.34V31.42C88.8469 32.38 88.2469 33.016 87.3469 33.016ZM97.8044 34.144C99.7244 34.144 100.84 33.1 100.84 31.54C100.84 30.208 100.084 29.464 98.4164 29.14L97.6724 28.984C96.7724 28.804 96.3404 28.504 96.3404 27.808C96.3404 27.076 96.8924 26.68 97.8524 26.68C98.7764 26.68 99.3764 27.04 99.8084 27.604L100.756 26.764C100.108 25.936 99.1844 25.48 97.9244 25.48C96.1484 25.48 94.9964 26.392 94.9964 27.88C94.9964 29.212 95.8244 29.968 97.4444 30.268L98.1884 30.4C99.1604 30.592 99.4964 30.964 99.4964 31.612C99.4964 32.416 98.9444 32.944 97.8764 32.944C96.9644 32.944 96.2684 32.572 95.6804 31.852L94.7444 32.728C95.4404 33.592 96.4004 34.144 97.8044 34.144ZM104.397 34H105.537V32.932H104.325V28.828H105.633V27.76H104.325V26.056H103.149V27.148C103.149 27.58 103.005 27.76 102.573 27.76H102.045V28.828H103.017V32.644C103.017 33.496 103.497 34 104.397 34ZM109.773 34.144C111.513 34.144 112.641 32.872 112.641 30.88C112.641 28.888 111.513 27.616 109.773 27.616C108.033 27.616 106.905 28.888 106.905 30.88C106.905 32.872 108.033 34.144 109.773 34.144ZM109.773 33.064C108.885 33.064 108.285 32.512 108.285 31.408V30.352C108.285 29.248 108.885 28.696 109.773 28.696C110.661 28.696 111.261 29.248 111.261 30.352V31.408C111.261 32.512 110.661 33.064 109.773 33.064ZM114.418 34H115.726V30.016C115.726 29.368 116.302 29.02 117.334 29.02H117.85V27.76H117.502C116.506 27.76 115.966 28.324 115.786 28.96H115.726V27.76H114.418V34ZM121.721 34.144C122.885 34.144 123.797 33.64 124.265 32.884L123.497 32.128C123.137 32.704 122.621 33.064 121.853 33.064C120.797 33.064 120.209 32.38 120.209 31.42V31.216H124.493V30.724C124.493 28.996 123.557 27.616 121.721 27.616C119.945 27.616 118.853 28.888 118.853 30.88C118.853 32.872 119.945 34.144 121.721 34.144ZM121.721 28.636C122.585 28.636 123.113 29.272 123.113 30.232V30.352H120.209V30.268C120.209 29.308 120.821 28.636 121.721 28.636Z" fill="white"/>
</svg>
