<svg width="180" height="46" viewBox="0 0 180 46" fill="none" xmlns="http://www.w3.org/2000/svg">
<rect width="180" height="46" rx="4" fill="#474D57"/>
<path fill-rule="evenodd" clip-rule="evenodd" d="M42.3642 32.0725L51.1065 23.3506L42.3642 14.6121C42.1488 14.9595 41.9999 15.5224 41.9999 16.3331V30.3511C41.9999 31.1619 42.1488 31.7246 42.3642 32.0725Z" fill="#00D1FF"/>
<path fill-rule="evenodd" clip-rule="evenodd" d="M54.7988 27.0416L51.9342 24.1622L43.4238 32.6855H43.5067C44.2351 32.6855 44.8643 32.4204 45.8742 31.8742L54.7988 27.0416Z" fill="#F7364A"/>
<path fill-rule="evenodd" clip-rule="evenodd" d="M55.8721 20.2222L52.7593 23.3504L55.8721 26.4618L57.7596 25.4354C58.4549 25.0546 59.5147 24.3596 59.5147 23.3504C59.5147 22.3241 58.4549 21.629 57.7596 21.2482L55.8721 20.2222Z" fill="#F0B90B"/>
<path fill-rule="evenodd" clip-rule="evenodd" d="M43.4238 14L51.9342 22.5231L54.7988 19.6435L45.8742 14.8108C44.8643 14.2648 44.2352 14 43.5067 14H43.4238Z" fill="#00F076"/>
<path d="M72.9389 18H73.6949V11.718H72.9389V14.49H69.7619V11.718H69.0059V18H69.7619V15.156H72.9389V18ZM77.0432 18.108C77.9162 18.108 78.5822 17.676 78.8792 17.046L78.3662 16.677C78.1232 17.19 77.6732 17.478 77.0882 17.478C76.2242 17.478 75.7112 16.875 75.7112 16.074V15.858H79.0502V15.516C79.0502 14.202 78.2852 13.248 77.0432 13.248C75.7832 13.248 74.9552 14.202 74.9552 15.678C74.9552 17.154 75.7832 18.108 77.0432 18.108ZM77.0432 13.851C77.7812 13.851 78.2762 14.4 78.2762 15.219V15.318H75.7112V15.255C75.7112 14.445 76.2602 13.851 77.0432 13.851ZM80.9567 18V14.778C80.9567 14.184 81.4967 13.896 82.0637 13.896C82.7477 13.896 83.0627 14.319 83.0627 15.147V18H83.7827V14.778C83.7827 14.184 84.3047 13.896 84.8717 13.896C85.5737 13.896 85.8887 14.328 85.8887 15.147V18H86.6087V15.021C86.6087 13.896 86.0417 13.248 85.0967 13.248C84.3047 13.248 83.8547 13.689 83.6837 14.193H83.6657C83.4137 13.527 82.8557 13.248 82.2437 13.248C81.5237 13.248 81.1997 13.635 80.9927 14.112H80.9567V13.356H80.2367V18H80.9567ZM89.8401 18.108C90.7131 18.108 91.3791 17.676 91.6761 17.046L91.1631 16.677C90.9201 17.19 90.4701 17.478 89.8851 17.478C89.0211 17.478 88.5081 16.875 88.5081 16.074V15.858H91.8471V15.516C91.8471 14.202 91.0821 13.248 89.8401 13.248C88.5801 13.248 87.7521 14.202 87.7521 15.678C87.7521 17.154 88.5801 18.108 89.8401 18.108ZM89.8401 13.851C90.5781 13.851 91.0731 14.4 91.0731 15.219V15.318H88.5081V15.255C88.5081 14.445 89.0571 13.851 89.8401 13.851ZM93.7536 18V14.778C93.7536 14.184 94.3116 13.896 94.8876 13.896C95.5806 13.896 95.9406 14.319 95.9406 15.147V18H96.6606V15.021C96.6606 13.896 96.0576 13.248 95.1036 13.248C94.4106 13.248 94.0146 13.59 93.7896 14.112H93.7536V13.356H93.0336V18H93.7536ZM101.311 10.98C101.653 10.98 101.815 10.791 101.815 10.503V10.377C101.815 10.089 101.653 9.9 101.311 9.9C100.969 9.9 100.807 10.089 100.807 10.377V10.503C100.807 10.791 100.969 10.98 101.311 10.98ZM102.571 18V17.37H101.689V12.348H102.571V11.718H100.051V12.348H100.933V17.37H100.051V18H102.571ZM104.599 18V14.778C104.599 14.184 105.157 13.896 105.733 13.896C106.426 13.896 106.786 14.319 106.786 15.147V18H107.506V15.021C107.506 13.896 106.903 13.248 105.949 13.248C105.256 13.248 104.86 13.59 104.635 14.112H104.599V13.356H103.879V18H104.599ZM111.964 18H112.684V11.34H111.964V14.112H111.928C111.685 13.527 111.208 13.248 110.569 13.248C109.408 13.248 108.679 14.193 108.679 15.678C108.679 17.163 109.408 18.108 110.569 18.108C111.208 18.108 111.649 17.82 111.928 17.244H111.964V18ZM110.767 17.46C109.957 17.46 109.453 16.902 109.453 16.074V15.282C109.453 14.454 109.957 13.896 110.767 13.896C111.424 13.896 111.964 14.274 111.964 14.787V16.515C111.964 17.118 111.424 17.46 110.767 17.46ZM114.575 12.267C114.881 12.267 115.016 12.105 115.016 11.862V11.745C115.016 11.502 114.881 11.34 114.575 11.34C114.269 11.34 114.134 11.502 114.134 11.745V11.862C114.134 12.105 114.269 12.267 114.575 12.267ZM114.215 18H114.935V13.356H114.215V18ZM117.185 18V14.85C117.185 14.409 117.653 14.076 118.427 14.076H118.85V13.356H118.571C117.815 13.356 117.392 13.77 117.23 14.211H117.185V13.356H116.465V18H117.185Z" fill="white"/>
<path d="M74.5889 32.728V34H75.7769V29.536H72.7409V30.7H74.4689V31.348C74.4689 32.392 73.5449 32.932 72.4889 32.932C71.1689 32.932 70.2809 32.032 70.2809 30.496V29.128C70.2809 27.592 71.1689 26.692 72.4889 26.692C73.5089 26.692 74.1809 27.232 74.5049 28.012L75.6089 27.364C75.0329 26.188 73.9889 25.48 72.4889 25.48C70.2929 25.48 68.8289 27.016 68.8289 29.812C68.8289 32.62 70.2929 34.144 72.2849 34.144C73.5569 34.144 74.3729 33.532 74.5409 32.728H74.5889ZM80.3339 34.144C82.0739 34.144 83.2019 32.872 83.2019 30.88C83.2019 28.888 82.0739 27.616 80.3339 27.616C78.5939 27.616 77.4659 28.888 77.4659 30.88C77.4659 32.872 78.5939 34.144 80.3339 34.144ZM80.3339 33.064C79.4459 33.064 78.8459 32.512 78.8459 31.408V30.352C78.8459 29.248 79.4459 28.696 80.3339 28.696C81.2219 28.696 81.8219 29.248 81.8219 30.352V31.408C81.8219 32.512 81.2219 33.064 80.3339 33.064ZM87.4273 34.144C89.1673 34.144 90.2953 32.872 90.2953 30.88C90.2953 28.888 89.1673 27.616 87.4273 27.616C85.6873 27.616 84.5593 28.888 84.5593 30.88C84.5593 32.872 85.6873 34.144 87.4273 34.144ZM87.4273 33.064C86.5393 33.064 85.9393 32.512 85.9393 31.408V30.352C85.9393 29.248 86.5393 28.696 87.4273 28.696C88.3153 28.696 88.9153 29.248 88.9153 30.352V31.408C88.9153 32.512 88.3153 33.064 87.4273 33.064ZM97.5448 34.588C97.5448 33.508 96.8968 32.86 95.3608 32.86H93.8248C93.2728 32.86 92.9488 32.728 92.9488 32.392C92.9488 32.08 93.2368 31.876 93.5488 31.768C93.7768 31.828 94.0648 31.864 94.3648 31.864C95.9488 31.864 96.8608 31.012 96.8608 29.752C96.8608 29.032 96.5488 28.432 95.9848 28.06V27.808H97.2568V26.752H96.2968C95.7448 26.752 95.4808 27.088 95.4808 27.64V27.808C95.1568 27.676 94.7728 27.616 94.3528 27.616C92.7688 27.616 91.8688 28.48 91.8688 29.752C91.8688 30.592 92.2768 31.252 93.0088 31.6V31.648C92.4088 31.792 91.9048 32.104 91.9048 32.752C91.9048 33.22 92.1568 33.568 92.6128 33.712V33.844C91.9528 33.988 91.5448 34.36 91.5448 35.044C91.5448 35.992 92.3368 36.544 94.3768 36.544C96.6208 36.544 97.5448 35.884 97.5448 34.588ZM94.3648 30.916C93.5968 30.916 93.1528 30.568 93.1528 29.86V29.62C93.1528 28.912 93.5968 28.564 94.3648 28.564C95.1328 28.564 95.5768 28.912 95.5768 29.62V29.86C95.5768 30.568 95.1328 30.916 94.3648 30.916ZM96.3208 34.732C96.3208 35.308 95.8168 35.596 94.7968 35.596H93.9808C93.0088 35.596 92.6368 35.248 92.6368 34.744C92.6368 34.444 92.7808 34.192 93.0688 34.024H95.1808C96.0328 34.024 96.3208 34.3 96.3208 34.732ZM100.17 34H101.01V32.932H100.146V25.12H98.8381V32.704C98.8381 33.508 99.2821 34 100.17 34ZM105.028 34.144C106.192 34.144 107.104 33.64 107.572 32.884L106.804 32.128C106.444 32.704 105.928 33.064 105.16 33.064C104.104 33.064 103.516 32.38 103.516 31.42V31.216H107.8V30.724C107.8 28.996 106.864 27.616 105.028 27.616C103.252 27.616 102.16 28.888 102.16 30.88C102.16 32.872 103.252 34.144 105.028 34.144ZM105.028 28.636C105.892 28.636 106.42 29.272 106.42 30.232V30.352H103.516V30.268C103.516 29.308 104.128 28.636 105.028 28.636ZM112.82 34H114.176V30.664H116.42C117.956 30.664 118.856 29.668 118.856 28.144C118.856 26.62 117.956 25.624 116.42 25.624H112.82V34ZM114.176 29.476V26.812H116.336C117.02 26.812 117.428 27.184 117.428 27.856V28.432C117.428 29.104 117.02 29.476 116.336 29.476H114.176ZM121.899 34H122.739V32.932H121.875V25.12H120.567V32.704C120.567 33.508 121.011 34 121.899 34ZM128.881 34H129.613V32.932H128.953V29.8C128.953 28.408 128.053 27.616 126.445 27.616C125.233 27.616 124.501 28.132 124.093 28.828L124.873 29.536C125.185 29.044 125.629 28.684 126.361 28.684C127.237 28.684 127.645 29.128 127.645 29.884V30.412H126.517C124.777 30.412 123.853 31.048 123.853 32.284C123.853 33.412 124.585 34.144 125.869 34.144C126.781 34.144 127.453 33.736 127.693 32.956H127.753C127.837 33.568 128.197 34 128.881 34ZM126.241 33.148C125.593 33.148 125.185 32.86 125.185 32.308V32.092C125.185 31.552 125.629 31.252 126.541 31.252H127.645V32.152C127.645 32.764 127.045 33.148 126.241 33.148ZM134.961 27.76L133.713 31.432L133.317 32.788H133.257L132.897 31.432L131.649 27.76H130.341L132.609 34.276L132.249 35.332H131.193V36.4H131.949C132.921 36.4 133.293 36.076 133.593 35.236L136.221 27.76H134.961Z" fill="white"/>
</svg>
